<svg width="400" height="800" viewBox="0 0 400 800" fill="none" xmlns="http://www.w3.org/2000/svg">
  <!-- Background -->
  <rect width="400" height="800" fill="#151931"/>
  
  <!-- Status Bar -->
  <rect width="400" height="48" fill="#0F112A"/>
  <circle cx="24" cy="24" r="8" fill="#5E17EB" fill-opacity="0.8"/>
  <rect x="44" y="20" width="100" height="8" rx="4" fill="#FFFFFF" fill-opacity="0.2"/>
  <rect x="320" y="20" width="24" height="8" rx="4" fill="#FFFFFF" fill-opacity="0.2"/>
  <rect x="356" y="20" width="20" height="8" rx="4" fill="#FFFFFF" fill-opacity="0.2"/>
  
  <!-- App Header -->
  <rect y="48" width="400" height="80" fill="#5E17EB" fill-opacity="0.8"/>
  <rect x="20" y="68" width="120" height="16" rx="8" fill="white"/>
  <rect x="20" y="92" width="180" height="12" rx="6" fill="white" fill-opacity="0.6"/>
  <circle cx="360" cy="88" r="20" fill="white" fill-opacity="0.2"/>
  <circle cx="360" cy="88" r="8" fill="white"/>
  
  <!-- Dashboard Cards -->
  <!-- Card 1 -->
  <rect x="20" y="148" width="360" height="120" rx="16" fill="white" fill-opacity="0.05"/>
  <rect x="40" y="168" width="160" height="16" rx="8" fill="white" fill-opacity="0.8"/>
  <rect x="40" y="192" width="80" height="12" rx="6" fill="white" fill-opacity="0.4"/>
  <circle cx="320" cy="180" r="32" fill="#5E17EB" fill-opacity="0.2"/>
  <path d="M320 200 L340 160 L300 160 Z" fill="#5E17EB"/>
  <rect x="40" y="220" width="320" height="28" rx="14" fill="#5E17EB" fill-opacity="0.8"/>
  
  <!-- Card 2 -->
  <rect x="20" y="288" width="360" height="120" rx="16" fill="white" fill-opacity="0.05"/>
  <rect x="40" y="308" width="120" height="16" rx="8" fill="white" fill-opacity="0.8"/>
  <rect x="40" y="332" width="80" height="12" rx="6" fill="white" fill-opacity="0.4"/>
  <circle cx="320" cy="320" r="32" fill="#00D4FF" fill-opacity="0.2"/>
  <path d="M320 340 L340 300 L300 300 Z" fill="#00D4FF"/>
  <rect x="40" y="360" width="140" height="28" rx="14" fill="#00D4FF" fill-opacity="0.8"/>
  <rect x="190" y="360" width="170" height="28" rx="14" fill="#00D4FF" fill-opacity="0.3"/>
  
  <!-- Card 3 -->
  <rect x="20" y="428" width="360" height="120" rx="16" fill="white" fill-opacity="0.05"/>
  <rect x="40" y="448" width="180" height="16" rx="8" fill="white" fill-opacity="0.8"/>
  <rect x="40" y="472" width="80" height="12" rx="6" fill="white" fill-opacity="0.4"/>
  <circle cx="320" cy="460" r="32" fill="#27F2AA" fill-opacity="0.2"/>
  <path d="M320 480 L340 440 L300 440 Z" fill="#27F2AA"/>
  <rect x="40" y="500" width="200" height="28" rx="14" fill="#27F2AA" fill-opacity="0.8"/>
  <rect x="250" y="500" width="110" height="28" rx="14" fill="#27F2AA" fill-opacity="0.3"/>
  
  <!-- Quick Actions -->
  <rect x="20" y="568" width="172" height="80" rx="16" fill="#5E17EB" fill-opacity="0.1"/>
  <circle cx="60" cy="608" r="24" fill="#5E17EB" fill-opacity="0.3"/>
  <rect x="100" y="596" width="72" height="12" rx="6" fill="white" fill-opacity="0.8"/>
  <rect x="100" y="616" width="52" height="8" rx="4" fill="white" fill-opacity="0.4"/>
  
  <rect x="208" y="568" width="172" height="80" rx="16" fill="#00D4FF" fill-opacity="0.1"/>
  <circle cx="248" cy="608" r="24" fill="#00D4FF" fill-opacity="0.3"/>
  <rect x="288" y="596" width="72" height="12" rx="6" fill="white" fill-opacity="0.8"/>
  <rect x="288" y="616" width="52" height="8" rx="4" fill="white" fill-opacity="0.4"/>
  
  <!-- Bottom Navigation -->
  <rect y="668" width="400" height="80" fill="#0F112A"/>
  <circle cx="80" cy="708" r="20" fill="white" fill-opacity="0.1"/>
  <rect x="64" y="702" width="32" height="4" rx="2" fill="white"/>
  <rect x="72" y="710" width="16" height="4" rx="2" fill="white"/>
  
  <circle cx="200" cy="708" r="28" fill="#5E17EB"/>
  <rect x="190" y="708" width="20" height="4" rx="2" fill="white"/>
  <rect x="200" y="698" width="4" height="20" rx="2" fill="white"/>
  
  <circle cx="320" cy="708" r="20" fill="white" fill-opacity="0.1"/>
  <rect x="304" y="702" width="32" height="4" rx="2" fill="white"/>
  <rect x="312" y="710" width="16" height="4" rx="2" fill="white"/>
  
  <!-- Energenius Logo -->
  <text x="200" y="760" font-family="Arial" font-size="12" fill="white" text-anchor="middle">Energenius</text>
</svg> 