<svg xmlns="http://www.w3.org/2000/svg" width="120" height="120" viewBox="0 0 120 120">
  <defs>
    <linearGradient id="grad1" x1="0%" y1="0%" x2="100%" y2="100%">
      <stop offset="0%" stop-color="#5e17eb" />
      <stop offset="100%" stop-color="#7c3aed" />
    </linearGradient>
    <linearGradient id="grad2" x1="0%" y1="0%" x2="100%" y2="100%">
      <stop offset="0%" stop-color="#00d4ff" />
      <stop offset="100%" stop-color="#33deff" />
    </linearGradient>
  </defs>
  
  <!-- Background Circle -->
  <circle cx="60" cy="60" r="55" fill="white" stroke="url(#grad1)" stroke-width="2" />
  
  <!-- Monitor/Dashboard -->
  <rect x="30" y="35" width="60" height="40" rx="4" ry="4" fill="url(#grad1)" />
  <rect x="32" y="37" width="56" height="32" rx="2" ry="2" fill="#f8fafc" />
  
  <!-- Energy Graph -->
  <polyline points="38,60 48,50 58,55 68,45 78,48 88,40" fill="none" stroke="url(#grad1)" stroke-width="2" stroke-linecap="round" stroke-linejoin="round" />
  
  <!-- Stand -->
  <path d="M50 75 L50 80 L70 80 L70 75" fill="none" stroke="url(#grad1)" stroke-width="2" stroke-linecap="round" stroke-linejoin="round" />
  <rect x="45" y="80" width="30" height="5" rx="2" ry="2" fill="url(#grad1)" />
  
  <!-- Lightning Bolt -->
  <path d="M80 25 L65 40 L75 45 L60 65" fill="none" stroke="url(#grad2)" stroke-width="3" stroke-linecap="round" stroke-linejoin="round" />
  <circle cx="80" cy="25" r="3" fill="url(#grad2)" />
  <circle cx="60" cy="65" r="3" fill="url(#grad2)" />
  
  <!-- Circular Indicators -->
  <circle cx="35" cy="25" r="8" fill="white" stroke="url(#grad2)" stroke-width="2" />
  <circle cx="35" cy="25" r="4" fill="url(#grad2)" />
  <circle cx="85" cy="85" r="8" fill="white" stroke="url(#grad2)" stroke-width="2" />
  <circle cx="85" cy="85" r="4" fill="url(#grad2)" />
</svg> 